<svg width="34" height="32" viewBox="0 0 34 32" fill="none" xmlns="http://www.w3.org/2000/svg">
<g clip-path="url(#clip0_258_1859)">
<path d="M16.9554 23.7996L26.6624 17.2396C26.8905 17.1121 27.0794 16.9309 27.2107 16.7138C27.3419 16.4968 27.4109 16.2514 27.4109 16.0016C27.4109 15.7519 27.3419 15.5065 27.2107 15.2894C27.0794 15.0724 26.8905 14.8912 26.6624 14.7636L16.9554 8.19963C16.724 8.07154 16.4607 8.00334 16.1922 8.00197C15.9238 8.0006 15.6597 8.06611 15.4269 8.19183C15.194 8.31756 15.0006 8.49904 14.8664 8.71784C14.7321 8.93664 14.6618 9.18497 14.6625 9.43763V11.9996C11.475 11.9996 1.91248 11.9996 -0.212526 27.9996C5.09998 18.9996 14.6625 19.9996 14.6625 19.9996V22.5616C14.6625 23.6816 15.9502 24.3576 16.9554 23.8016V23.7996Z" fill="#2DB0FC"/>
<path d="M22.8821 8.58646C22.799 8.69225 22.739 8.81242 22.7054 8.94008C22.6717 9.06775 22.6652 9.2004 22.6861 9.33045C22.707 9.46049 22.755 9.58538 22.8273 9.69795C22.8996 9.81052 22.9947 9.90856 23.1073 9.98646L31.6328 15.8905L31.7221 15.9465C31.7683 15.9726 31.8065 16.0095 31.8331 16.0537C31.8596 16.0979 31.8736 16.1477 31.8736 16.1985C31.8736 16.2492 31.8596 16.2991 31.8331 16.3432C31.8065 16.3874 31.7683 16.4243 31.7221 16.4505L31.6328 16.5065L23.1073 22.4145C22.9922 22.4913 22.8945 22.589 22.8199 22.7018C22.7453 22.8145 22.6954 22.9402 22.673 23.0713C22.6505 23.2025 22.6561 23.3365 22.6893 23.4656C22.7226 23.5947 22.7828 23.7163 22.8665 23.8233C22.9502 23.9302 23.0557 24.0204 23.1769 24.0886C23.298 24.1567 23.4324 24.2015 23.5721 24.2202C23.7119 24.2389 23.8542 24.2313 23.9907 24.1976C24.1273 24.164 24.2554 24.1052 24.3675 24.0245L32.8547 18.1465C33.2056 17.9403 33.495 17.6535 33.6956 17.3131C33.8962 16.9727 34.0015 16.5898 34.0015 16.2005C34.0015 15.8112 33.8962 15.4283 33.6956 15.0878C33.495 14.7474 33.2056 14.4606 32.8547 14.2545L24.3675 8.37446C24.1406 8.21723 23.8567 8.15124 23.5781 8.191C23.2996 8.23075 23.0492 8.373 22.8821 8.58646Z" fill="#2DB0FC"/>
</g>
<defs>
<clipPath id="clip0_258_1859">
<rect width="34" height="32" fill="white" transform="matrix(-1 0 0 1 34 0)"/>
</clipPath>
</defs>
</svg>
